<?xml version="1.0" standalone="no"?>
<!DOCTYPE svg PUBLIC "-//W3C//DTD SVG 20010904//EN"
 "http://www.w3.org/TR/2001/REC-SVG-20010904/DTD/svg10.dtd">
<svg version="1.0" xmlns="http://www.w3.org/2000/svg"
 width="253.000000pt" height="253.000000pt" viewBox="0 0 253.000000 253.000000"
 preserveAspectRatio="xMidYMid meet">
<metadata>
Created by potrace 1.11, written by Peter Selinger 2001-2013
</metadata>
<g transform="translate(0.000000,253.000000) scale(0.100000,-0.100000)"
fill="#000000" stroke="none">
<path d="M1120 2020 l0 -130 -37 -1 c-140 -3 -204 -7 -209 -12 -8 -7 -7 -287
0 -294 5 -5 81 -9 199 -12 l47 -1 0 -130 0 -130 160 0 160 0 0 130 0 130 43 1
c96 1 199 8 204 12 6 7 6 287 -1 294 -5 5 -57 8 -198 12 l-48 1 0 130 0 130
-160 0 -160 0 0 -130z"/>
<path d="M643 2019 c-4 -12 -21 -65 -40 -118 -84 -235 -97 -330 -58 -425 13
-33 32 -67 41 -75 9 -9 14 -10 10 -3 -13 23 -8 186 8 255 9 37 29 109 45 160
40 123 46 161 31 197 -15 35 -30 39 -37 9z"/>
<path d="M1895 2010 c-20 -38 -15 -66 38 -235 40 -124 42 -136 42 -257 0 -138
6 -146 43 -60 43 100 33 201 -43 417 -25 72 -45 138 -45 148 0 27 -18 20 -35
-13z"/>
<path d="M512 1968 c-37 -60 -119 -232 -141 -296 -52 -152 -4 -319 132 -460
76 -78 131 -115 237 -162 148 -64 354 -185 421 -247 l26 -24 12 48 c18 69 15
139 -8 213 -32 104 -66 147 -202 255 -133 107 -174 147 -241 237 -24 32 -48
57 -54 58 -15 0 -25 -52 -17 -92 11 -60 61 -152 124 -227 l63 -74 -41 5 c-63
9 -189 74 -239 124 -25 24 -57 70 -72 101 -24 51 -27 70 -26 153 0 82 5 109
37 200 43 127 50 161 37 194 -13 34 -24 33 -48 -6z"/>
<path d="M2010 1974 c-14 -36 -14 -35 32 -168 38 -112 41 -129 42 -226 0 -94
-3 -110 -27 -157 -32 -62 -106 -137 -167 -168 -51 -26 -171 -67 -178 -61 -2 3
21 34 52 70 57 68 118 176 131 234 7 36 -2 92 -15 92 -5 0 -35 -33 -67 -72
-72 -91 -105 -123 -211 -205 -46 -37 -99 -80 -117 -97 -72 -68 -125 -185 -127
-280 0 -42 19 -146 28 -146 3 0 33 22 68 49 77 59 194 125 378 214 107 52 151
80 201 127 188 176 231 367 130 584 -53 113 -122 236 -134 236 -5 0 -14 -12
-19 -26z"/>
</g>
</svg>
