<svg xmlns="http://www.w3.org/2000/svg" viewBox="0 0 56 70" x="0px" y="0px" fill="#6c63ff">
    <title>calendar</title>
    <path d="M41,29A11,11,0,1,0,52,40,11,11,0,0,0,41,29Zm0,20a9,9,0,1,1,9-9A9,9,0,0,1,41,49Z"/>
    <path d="M44.18,36.52l-4.85,4.84-1.51-1.51a1,1,0,0,0-1.42,0,1,1,0,0,0,0,1.41l2.23,2.22a1,1,0,0,0,1.41,0l5.56-5.55a1,1,0,0,0-1.42-1.41Z"/>
    <path d="M27.33,45H8a2,2,0,0,1-2-2V21H35a1,1,0,0,0,0-2H6V13a2,2,0,0,1,2-2h4.5v1a3,3,0,0,0,3,3h1a3,3,0,0,0,3-3V11h13v1a3,3,0,0,0,3,3h1a3,3,0,0,0,3-3V11H44a2,2,0,0,1,2,2v6H41.52a1,1,0,0,0,0,2H46v5.94a1,1,0,0,0,2,0V13a4,4,0,0,0-4-4H39.5V8a3,3,0,0,0-3-3h-1a3,3,0,0,0-3,3V9h-13V8a3,3,0,0,0-3-3h-1a3,3,0,0,0-3,3V9H8a4,4,0,0,0-4,4V43a4,4,0,0,0,4,4H27.33a1,1,0,0,0,0-2ZM34.5,8a1,1,0,0,1,1-1h1a1,1,0,0,1,1,1v4a1,1,0,0,1-1,1h-1a1,1,0,0,1-1-1Zm-20,0a1,1,0,0,1,1-1h1a1,1,0,0,1,1,1v4a1,1,0,0,1-1,1h-1a1,1,0,0,1-1-1Z"/>
    <circle cx="26" cy="27" r="2"/>
    <circle cx="14" cy="27" r="2"/>
    <circle cx="14" cy="38" r="2"/>
</svg>