<svg xmlns="http://www.w3.org/2000/svg" 
    xmlns:xlink="http://www.w3.org/1999/xlink" version="1.1" x="0px" y="0px" viewBox="0 0 308.543 305.1575" style="enable-background:new 0 0 308.543 244.126;" xml:space="preserve" fill="#6c63ff">
    <g>
        <path d="M113.273,85.878c3.175-1.284,21.98-3.616,41.611-3.903v23.751h-49.811c0.217,2.261,0.4,4.587,0.541,6.993h3.782v6.658   h6.658v-6.658h6.659v6.658h6.658v-6.658h6.659v6.658h6.659v-6.658h6.658v6.658h6.659v-6.658h6.659v6.658h6.659v-6.658h6.658v6.658   h6.659v-6.658h6.659v6.658h6.658v-6.658h6.659v6.658h6.659v-6.658h6.658v6.658h6.659v-6.658h6.659v6.658h6.658v-6.658h6.659v6.658   h6.659v-6.658h6.658v6.658h-6.658v6.658h-6.659v-6.658h-6.659v6.658h-6.658v-6.658h-6.659v6.658h-6.659v-6.658h-6.658v6.658h-6.659   v-6.658h-6.659v6.658h-6.658v-6.658h-6.659v6.658h-6.659v-6.658h-6.658v6.658h-6.659v-6.658h-6.659v6.658h-6.659v-6.658h-6.658   v6.658h-6.659v-6.658h-6.659v6.658h-6.658v-6.658h-6.659v6.658h-6.658v-6.658h-3.498c0.069,2.374,0.116,4.79,0.12,7.295   c0,2.543-0.044,5.19-0.114,7.894c3.609,3.432,5.983,8.152,6.37,13.429h118.766c0.784-10.684,9.693-19.111,20.577-19.111   c10.886,0,19.795,8.428,20.578,19.111h23.3c2.027,0,3.671-1.643,3.671-3.669v-2.753c0-2.025-1.644-3.67-3.671-3.67H291   c2.408-5.975,4.955-12.742,4.955-14.676c0-9.953-64.214-17.136-64.214-17.136s-24.157-22.004-27.519-24.604   c-2.967-2.292-20.322-4.463-38.221-4.944l-2.089-12.283h-10.333l-2.089,12.284c-18.284,0.478-37.332,2.6-40.835,4.485   c-1.345,0.725-4.565,3.851-8.236,7.665c0.484,2.119,0.925,4.316,1.31,6.614C108.225,90.527,111.919,86.815,113.273,85.878z    M221.345,105.725h-60.617V81.953c19.073,0.147,36.893,2.422,40.271,4.01C202.879,87.567,212.462,96.17,221.345,105.725z"/>
        <path d="M91.443,159.371c-0.254,0-0.515-0.008-0.775-0.021c-2.866-0.168-5.479-1.182-7.612-2.779v7.005   c2.516,1.55,5.469,2.46,8.641,2.46c9.119,0,16.51-7.393,16.51-16.512c0-0.516-0.026-1.025-0.072-1.529   c-0.243-2.64-1.108-5.099-2.445-7.231c-0.079,1.784-0.169,3.59-0.276,5.423C104.983,153.579,98.846,159.371,91.443,159.371z"/>
        <path d="M251.616,133.012c-8.605,0-15.667,6.58-16.438,14.982c-0.045,0.504-0.073,1.014-0.073,1.529   c0,9.119,7.392,16.512,16.512,16.512c9.12,0,16.512-7.393,16.512-16.512c0-0.516-0.026-1.025-0.072-1.529   C267.283,139.592,260.219,133.012,251.616,133.012z M251.616,155.638c-3.378,0-6.115-2.738-6.115-6.116   c0-0.206,0.011-0.41,0.031-0.611c0.306-3.091,2.913-5.504,6.084-5.504s5.777,2.413,6.084,5.504   c0.021,0.201,0.032,0.405,0.032,0.611C257.732,152.9,254.994,155.638,251.616,155.638z"/>
        <rect x="83.057" y="167.035" width="225.486" height="4"/>
        <path d="M8.574,153.369c0.158,0,0.316-0.004,0.476-0.014c4.41-0.258,7.776-4.044,7.518-8.455C16.177,138.251,16,132.193,16,126.679   c-0.023-16.397,1.589-27.924,3.708-35.865c0.127-2.332,0.186-4.703,0.186-7.058c0.001-7.108-0.5-14.046-1.001-19.192   c-0.091-0.931-0.181-1.8-0.268-2.603c-4.292,3.21-8.558,8.544-11.748,16.671C2.771,89.013,0.014,104.021,0,126.679   c0,5.855,0.189,12.224,0.595,19.158C0.844,150.089,4.37,153.369,8.574,153.369z"/>
        <path d="M23.895,83.757c-0.001,5.083-0.25,10.28-0.93,15.096v15.971v18.939v98c0,6.83,5.537,12.363,12.363,12.363   c6.828,0,12.365-5.533,12.365-12.363v-90.271h4.635v90.271c0,6.83,5.537,12.363,12.363,12.363c6.828,0,12.365-5.533,12.365-12.363   v-98v-18.939V98.869c-0.684-4.819-0.932-10.023-0.933-15.113c0.002-9.686,0.9-18.944,1.505-24.091   c-3.296-1.602-6.183-1.983-7.937-2.005c-0.121-0.006-0.241-0.018-0.364-0.018h-4.565l-2.587,20.225l-9.75-11.75l7.648-8.475H39.946   l7.648,8.475l-9.75,11.75l-2.587-20.225h-4.564c-0.134,0-0.264,0.013-0.396,0.02c-1.758,0.024-4.63,0.408-7.907,2.002   C22.995,64.81,23.893,74.07,23.895,83.757z M50.01,74.869c1.519,0,2.75,1.231,2.75,2.75c0,1.519-1.231,2.75-2.75,2.75   c-1.519,0-2.75-1.231-2.75-2.75C47.26,76.099,48.491,74.869,50.01,74.869z M50.01,87.535c1.519,0,2.75,1.232,2.75,2.75   c0,1.52-1.231,2.75-2.75,2.75c-1.519,0-2.75-1.23-2.75-2.75C47.26,88.766,48.491,87.535,50.01,87.535z"/>
        <path d="M81.126,64.564c-0.502,5.146-1.003,12.084-1.003,19.191c-0.001,2.342,0.058,4.7,0.184,7.02   c2.127,7.941,3.719,19.504,3.711,35.904c0,5.515-0.177,11.572-0.565,18.223c-0.259,4.412,3.109,8.195,7.52,8.454   c0.158,0.009,0.315,0.015,0.472,0.015c4.208,0,7.733-3.283,7.98-7.536c0.404-6.933,0.593-13.298,0.593-19.155   c-0.04-30.182-4.862-46.886-11.435-56.932c-2.229-3.382-4.714-5.923-7.191-7.773C81.305,62.774,81.215,63.639,81.126,64.564z"/>
        <path d="M53.669,51.642c10.686-1.748,18.84-11.02,18.84-22.199c0-4.13-1.118-7.997-3.06-11.323   c-0.329,0.232-0.775,0.397-1.381,0.456c-7.622,0.75-12.195-1.5-32.012,7c-3.98,1.707-6.687,2.302-8.476,2.157   c-0.042,0.564-0.071,1.134-0.071,1.71c0,11.18,8.156,20.451,18.841,22.199c1.191,0.195,2.413,0.301,3.659,0.301   S52.478,51.838,53.669,51.642z"/>
        <path d="M36.057,23.201c19.816-8.5,24.39-6.25,32.012-7c0.856-0.084,1.409-0.366,1.724-0.783   c2.493-3.293-10.638-15.521-19.917-13.967c-1.875,0.315-3.609,0.678-5.216,1.08c-0.511-1.801-2.409-2.885-4.32-2.426   c-1.96,0.471-3.183,2.377-2.731,4.259c0.037,0.155,0.1,0.297,0.156,0.442c-3.465,1.488-5.886,3.19-7.371,4.894   c-1.724,1.979-6.584,9.696-5.659,13.518C25.331,25.674,28.306,26.525,36.057,23.201z"/>
    </g>
</svg>