<svg xmlns="http://www.w3.org/2000/svg" 
    xmlns:xlink="http://www.w3.org/1999/xlink" version="1.1" x="0px" y="0px" viewBox="0 0 630 1125" enable-background="new 0 0 630 900" xml:space="preserve" fill="#6c63ff">
    <path d="M619.182,154.417v685.95c0,27.91-22.884,49.94-50.341,49.94H59.342C31.885,890.309,9,868.277,9,840.367v-685.95  c0-27.909,22.885-49.942,50.342-49.942h74.747v36.72H59.342c-7.629,0-13.729,5.877-13.729,13.222v685.95  c0,7.346,6.1,13.221,13.729,13.221h509.499c7.628,0,13.729-5.875,13.729-13.221v-685.95c0-7.345-6.101-13.222-13.729-13.222h-74.748  v-36.72h74.748C596.298,104.476,619.182,126.508,619.182,154.417z M477.315,173.51H150.867V82.443  c0-8.814,7.628-14.688,15.256-14.688h71.698C246.971,33.97,277.478,9,314.091,9c36.613,0,67.119,24.97,76.271,58.756h70.171  c9.155,0,15.256,7.342,15.256,14.688v91.067L477.315,173.51L477.315,173.51z M335.448,75.098c0-11.751-9.151-20.564-21.357-20.564  s-21.356,8.813-21.356,20.564c0,11.75,9.15,20.564,21.356,20.564C326.297,97.131,335.448,86.848,335.448,75.098z M94.957,286.689  c-6.203-6.251-6.203-16.353,0-22.603c6.204-6.251,16.23-6.251,22.434,0l20.514,20.668l52.243-52.639  c6.203-6.249,16.232-6.249,22.436,0c6.203,6.25,6.2,16.352,0,22.603l-63.463,63.94c-3.092,3.117-7.154,4.684-11.215,4.684  c-4.063,0-8.124-1.567-11.218-4.684L94.957,286.689z M264.825,307.358h253.844c8.773,0,15.864-7.162,15.864-15.986  s-7.091-15.986-15.864-15.986H264.825c-8.773,0-15.867,7.162-15.867,15.986S256.052,307.358,264.825,307.358z M126.687,478.508  c3.095,3.118,7.156,4.683,11.218,4.683c4.061,0,8.123-1.564,11.215-4.683l63.463-63.939c6.2-6.25,6.2-16.352,0-22.603  c-6.203-6.25-16.232-6.25-22.436,0l-52.243,52.639l-20.514-20.668c-6.204-6.25-16.23-6.25-22.434,0  c-6.203,6.25-6.203,16.351,0,22.601L126.687,478.508z M264.825,467.208h253.844c8.773,0,15.864-7.162,15.864-15.985  c0-8.823-7.091-15.985-15.864-15.985H264.825c-8.773,0-15.867,7.163-15.867,15.985C248.958,460.046,256.052,467.208,264.825,467.208  z M126.687,638.357c3.095,3.119,7.156,4.684,11.218,4.684c4.061,0,8.123-1.564,11.215-4.684l63.463-63.938  c6.2-6.25,6.2-16.353,0-22.603c-6.203-6.251-16.232-6.251-22.436,0l-52.243,52.637l-20.514-20.667  c-6.204-6.251-16.23-6.251-22.434,0c-6.203,6.249-6.203,16.353,0,22.604L126.687,638.357z M264.825,627.059h253.844  c8.773,0,15.864-7.163,15.864-15.985c0-8.824-7.091-15.985-15.864-15.985H264.825c-8.773,0-15.867,7.161-15.867,15.985  C248.958,619.896,256.052,627.059,264.825,627.059z M126.687,798.208c3.095,3.116,7.156,4.683,11.218,4.683  c4.061,0,8.123-1.566,11.215-4.683l63.463-63.938c6.2-6.249,6.2-16.353,0-22.605c-6.203-6.25-16.232-6.25-22.436,0l-52.243,52.641  l-20.514-20.669c-6.204-6.25-16.23-6.25-22.434,0c-6.203,6.249-6.203,16.351,0,22.601L126.687,798.208z M264.825,786.905h253.844  c8.773,0,15.864-7.16,15.864-15.986c0-8.821-7.091-15.98-15.864-15.98H264.825c-8.773,0-15.867,7.159-15.867,15.98  C248.958,779.745,256.052,786.905,264.825,786.905z"/>
</svg>