<svg xmlns="http://www.w3.org/2000/svg" 
    xmlns:xlink="http://www.w3.org/1999/xlink" version="1.1" x="0px" y="0px" viewBox="0 0 48 60" enable-background="new 0 0 48 48" xml:space="preserve" fill="#6c63ff">
    <g>
        <path d="M36,42.5c0.2,0.2,0.5,0.3,0.7,0.3c0.3,0,0.5-0.1,0.7-0.3c2.3-2.3,2.3-6.1,0-8.5c-0.4-0.4-1-0.4-1.4,0c-0.4,0.4-0.4,1,0,1.4   c1.6,1.6,1.6,4.1,0,5.6C35.6,41.4,35.6,42.1,36,42.5z"/>
        <path d="M39.2,0c-4.8,0-8.8,3.9-8.8,8.8V22L16.3,7.8C14.5,6,12.1,5,9.5,5C7,5,4.6,6,2.8,7.8c-3.7,3.7-3.7,9.8,0,13.5l11.8,11.8   L26.5,45c1.8,1.8,4.2,2.8,6.7,2.8c1,0,1.9-0.1,2.8-0.4c1,0.4,2.1,0.6,3.3,0.6c4.8,0,8.8-3.9,8.8-8.8l0-30.5C48,3.9,44.1,0,39.2,0z    M4.2,19.9c-2.9-2.9-2.9-7.7,0-10.7C5.6,7.8,7.5,7,9.5,7c2,0,3.9,0.8,5.3,2.2L26,20.4L15.3,31L4.2,19.9z M35.7,45.3   C35.7,45.4,35.7,45.4,35.7,45.3c-0.8,0.3-1.6,0.4-2.5,0.4c-2,0-3.9-0.8-5.3-2.2L16.7,32.4l10.7-10.7l11.1,11.1   c2.9,2.9,2.9,7.7,0,10.7C37.7,44.4,36.7,45,35.7,45.3z M46,39.2c0,3.7-3,6.8-6.8,6.8c-0.2,0-0.3,0-0.5,0c0.4-0.3,0.8-0.6,1.2-1   c3.7-3.7,3.7-9.8,0-13.5L33.5,25H46V39.2z M46,23H32.5V8.8c0-3.7,3-6.8,6.8-6.8C43,2,46,5,46,8.8V23z"/>
    </g>
</svg>