<svg xmlns="http://www.w3.org/2000/svg" 
    xmlns:xlink="http://www.w3.org/1999/xlink" version="1.1" x="0px" y="0px" viewBox="9.437 153.632 493.125 255.92625" style="enable-background:new 9.437 153.632 493.125 204.741;" xml:space="preserve" fill="#6c63ff">
    <g>
        <path d="M482.754,229.153h-11.34c-3.884-17.746-12.782-34.08-25.997-47.299c-18.193-18.199-42.287-28.222-67.842-28.222h-46.677   c-1.472,0-2.928,0.07-4.375,0.171c-0.532-0.111-1.082-0.171-1.647-0.171h-145.99H132.25c-45.93,0-84.431,32.388-93.879,75.521   h-9.168c-10.899,0-19.766,8.882-19.766,19.8v12.035c0,10.92,8.867,19.805,19.766,19.805h7.911   c6.433,43.825,44.294,77.58,89.9,77.58h23.062c49.507,0,89.884-39.82,90.798-89.113c2.409-1.413,14.489-7.743,28.015-1.655   c0.028,50.054,40.775,90.768,90.858,90.768h23.063c45.584,0,83.427-33.755,89.856-77.58h10.088   c10.923,0,19.809-8.885,19.809-19.805v-12.035C502.563,238.035,493.677,229.153,482.754,229.153z M289.372,169.632   c-10.7,9.666-18.008,23.005-19.95,38.004h-29.06c-1.942-15-9.25-28.338-19.95-38.004H289.372z M33.008,264.793h-3.805   c-2.077,0-3.766-1.707-3.766-3.805v-12.035c0-2.06,1.725-3.8,3.766-3.8h3.805V264.793z M224.896,267.553   c0,41.256-33.564,74.82-74.82,74.82h-23.062c-41.282,0-74.868-33.564-74.868-74.82V249.73c0-44.167,35.935-80.098,80.104-80.098   h46.637c25.369,0,46.009,20.638,46.009,46.004V267.553z M240.896,251.783v-28.147h27.993v26.966   C257.75,247.493,247.732,249.388,240.896,251.783z M457.634,267.553c0,41.256-33.566,74.82-74.824,74.82h-23.063   c-41.277,0-74.858-33.564-74.858-74.82v-51.897c0-0.007,0.001-0.013,0.001-0.019c0-0.004-0.001-0.009-0.001-0.013   c0.007-25.361,20.644-45.992,46.009-45.992h46.677c21.28,0,41.354,8.358,56.527,23.534c15.175,15.179,23.531,35.267,23.531,56.564   V267.553z M486.563,260.988c0,2.063-1.744,3.805-3.809,3.805h-3.801v-19.64h3.801c2.064,0,3.809,1.74,3.809,3.8V260.988z"/>
        <path d="M108.979,209.793c-3.124-3.124-8.189-3.124-11.313,0l-29.818,29.818c-3.125,3.124-3.125,8.189,0,11.313   c1.562,1.562,3.609,2.343,5.657,2.343s4.095-0.781,5.657-2.343l29.818-29.818C112.103,217.983,112.103,212.917,108.979,209.793z"/>
        <path d="M128.734,209.793l-29.819,29.818c-3.124,3.125-3.125,8.189,0,11.314c1.563,1.563,3.609,2.343,5.657,2.343   c2.047,0,4.095-0.781,5.657-2.343l29.819-29.818c3.124-3.125,3.125-8.189,0-11.314C136.924,206.669,131.859,206.67,128.734,209.793   z"/>
    </g>
</svg>