<svg xmlns="http://www.w3.org/2000/svg" 
    xmlns:xlink="http://www.w3.org/1999/xlink" version="1.1" x="0px" y="0px" viewBox="0 0 323.369 265.1625" style="enable-background:new 0 0 323.369 212.13;" xml:space="preserve" fill="#6c63ff">
    <g>
        <path d="M67.164,204.019c0,4.48,3.631,8.111,8.111,8.111c4.482,0,8.113-3.631,8.113-8.111c0-3.507-2.229-6.485-5.345-7.618v-4.591   l-0.419-0.705c-0.406-0.835-7.152-10.756-30.81-11.923l1.207-12.164h23.181c4.141,0,7.498-3.358,7.498-7.5   c0-4.141-3.357-7.497-7.498-7.497l-51.936-0.003l-3.078-51.614c-0.246-4.135-3.8-7.285-7.935-7.039   c-4.134,0.247-7.284,3.8-7.038,7.935v-0.002l3.498,58.668c0.236,3.953,3.527,7.053,7.487,7.053h23.452l1.208,12.164   C13.207,180.35,6.459,190.27,6.055,191.105l-0.422,0.705v4.485C2.366,197.343,0,200.403,0,204.019c0,4.48,3.633,8.111,8.113,8.111   c4.48,0,8.111-3.631,8.111-8.111c0-3.217-1.877-5.988-4.591-7.301l-0.001-3.061c1.611-1.789,7.926-7.61,25.826-8.475l1.112,11.209   c-3.127,1.127-5.366,4.111-5.366,7.627c0,4.48,3.631,8.111,8.111,8.111c4.48,0,8.113-3.631,8.113-8.111   c0-3.128-1.773-5.838-4.365-7.191l1.156-11.651c10.474,0.496,16.998,2.731,20.908,4.822c2.215,1.185,3.602,2.331,4.412,3.127   c0.203,0.199,0.369,0.375,0.504,0.526v2.927C69.173,197.827,67.164,200.688,67.164,204.019z"/>
        <ellipse transform="matrix(0.2268 -0.9739 0.9739 0.2268 28.9653 82.531)" cx="66.461" cy="23.023" rx="22.494" ry="22.496"/>
        <path d="M90.045,130.188c-0.535,0-1.07-0.044-1.587-0.128c-8.185-1.294-15.456-3.941-21.67-7.87h-3.995   c-0.006-0.399-0.002-0.8-0.025-1.199c-0.037-0.574-0.062-1.148-0.092-1.723c-5.314-4.183-9.685-9.43-12.98-15.645   c-4.834-9.169-7.307-19.951-7.355-32.049c0.002-4.489,0.38-7.521,0.455-8.084c0.683-4.928,4.937-8.64,9.898-8.64   c0.457,0,0.922,0.031,1.377,0.095c2.646,0.367,4.99,1.74,6.604,3.869c1.614,2.129,2.301,4.758,1.936,7.403l-0.023,0.193   c-0.025,0.219-0.059,0.569-0.096,1.037c-0.067,0.882-0.148,2.32-0.148,4.117c-0.007,3.414,0.312,10.127,2.518,16.776   c0.169,0.511,0.36,0.992,0.544,1.484c0.95-3.968,2.125-7.886,3.541-11.729c3.699-10.313,1.203-22.911-8.018-29.047   c-9.139-6.141-23.945,0.08-29.52,15.226c-6.984,18.972-9.899,39.211-8.551,59.382c0.689,10.359,6.09,18.245,12.647,21.677   c1.813,1.114,3.926,1.779,6.194,1.84c0.631,0.049,1.261,0.053,1.891,0.017h39.406l7.355,47.249   c0.959,6.171,6.279,10.581,12.337,10.581c0.64,0,1.286-0.049,1.937-0.15c6.821-1.063,11.49-7.452,10.429-14.273l-8.999-57.83   c-0.631-4.045-3.176-7.383-6.618-9.169C98.033,127.506,94.34,130.188,90.045,130.188z"/>
        <path d="M91.295,112.284c-7.342-1.18-12.618-3.556-16.662-6.512c-6.027-4.426-9.551-10.422-11.67-16.801   c-2.104-6.342-2.629-12.911-2.62-17.405c0-1.816,0.079-3.293,0.155-4.279c0.039-0.493,0.075-0.862,0.101-1.093   c0.013-0.115,0.022-0.195,0.027-0.237l0.002-0.013c0.604-4.375-2.454-8.413-6.83-9.018c-4.378-0.604-8.414,2.454-9.018,6.832   l-0.002-0.002c-0.037,0.281-0.434,3.239-0.437,7.81c0.03,7.522,0.999,19.507,7.12,31.12c3.066,5.783,7.51,11.447,13.709,15.987   c6.188,4.55,14.064,7.902,23.609,9.412c0.426,0.068,0.85,0.101,1.267,0.101c3.862,0,7.264-2.807,7.89-6.744   C98.631,117.079,95.658,112.979,91.295,112.284z"/>
        <path d="M306.816,189.998c2.217,1.185,3.604,2.331,4.414,3.127c0.203,0.199,0.369,0.376,0.504,0.526v3.066   c-2.715,1.313-4.592,4.084-4.592,7.301c0,4.48,3.633,8.111,8.113,8.111c4.48,0,8.113-3.631,8.113-8.111   c0-3.616-2.367-6.677-5.637-7.725v-4.484l-0.418-0.705c-0.406-0.835-7.152-10.755-30.809-11.923l1.207-12.164l23.451-0.001   c3.959,0,7.252-3.1,7.488-7.053l3.498-58.666c0.246-4.135-2.906-7.688-7.039-7.933c-4.135-0.248-7.688,2.904-7.934,7.039   l-3.08,51.612l-51.932,0.002c-4.145,0-7.5,3.357-7.5,7.5c0,4.142,3.355,7.5,7.5,7.5l23.18-0.001l1.207,12.164   c-23.658,1.167-30.404,11.088-30.811,11.923l-0.42,0.705v4.591c-3.115,1.134-5.342,4.112-5.342,7.618   c0,4.48,3.631,8.111,8.111,8.111c4.482,0,8.113-3.631,8.113-8.111c0-3.332-2.01-6.192-4.883-7.441v-2.919   c1.609-1.789,7.924-7.612,25.826-8.476l1.156,11.645c-2.594,1.354-4.365,4.064-4.365,7.191c0,4.48,3.631,8.111,8.111,8.111   c4.48,0,8.113-3.631,8.113-8.111c0-3.516-2.24-6.5-5.367-7.627l1.113-11.215C296.383,185.673,302.908,187.907,306.816,189.998z"/>
        <ellipse transform="matrix(1 -0.0015 0.0015 1 -0.0329 0.3935)" cx="266.629" cy="22.495" rx="22.496" ry="22.495"/>
        <path d="M227.017,194.44l7.352-47.25h40.119c0.586,0.02,1.176,0.001,1.768-0.047c0.193-0.014,0.387-0.029,0.578-0.052   c7.936-0.918,16.254-7.68,19.596-18.723c5.859-19.349,7.582-39.725,5.053-59.781c-2.018-16.013-15.041-25.41-25.328-21.487   c-1.563,0.588-2.994,1.371-4.318,2.283c-0.287,0.177-0.564,0.368-0.828,0.58c-5.361,4.093-8.57,10.683-9.258,17.585   c-0.277,0.431-0.565,0.859-0.858,1.286c-2.353,3.44-5.215,6.644-8.269,8.802c-3.094,2.172-6.176,3.349-9.842,3.365   c-3.594-0.009-8.139-1.177-14.061-5.088l3.785-3.785l-2.83-2.828l-5.227,5.227c-2.668-0.079-5.314,1.168-6.904,3.552   c-0.961,1.44-1.385,3.078-1.334,4.686l-3.506,3.506l2.83,2.828l2.066-2.066c0.563,0.822,1.283,1.556,2.164,2.142   c7.895,5.281,15.691,7.837,23.016,7.828c0.025,0,0.051,0,0.076,0c0.676,0,1.34-0.029,2-0.072c2.016-0.757,3.949-1.688,5.799-2.832   c4.459-2.778,8.426-6.752,11.781-11.808c6.232-9.302,8.297-19.563,8.314-19.658c0.873-4.824,5.008-8.282,9.844-8.282   c0.594,0,1.197,0.053,1.787,0.159c2.629,0.474,4.914,1.944,6.435,4.138c1.525,2.195,2.102,4.85,1.627,7.479   c-0.365,1.896-1.789,8.458-5.449,16.544c-5.566,12.219-13.307,21.61-23.002,27.918c-0.838,0.545-1.697,1.058-2.566,1.553   c-0.393,1.553-0.816,3.099-1.281,4.634c-0.518,1.764-0.842,3.583-1.004,5.414h-23.398l-3.008-3.007   c-1.793-0.027-3.619-0.118-5.477-0.291l3.299,3.298h-4.893c-6.15,0-11.408,4.501-12.352,10.577l-9.002,57.829   c-1.061,6.821,3.607,13.21,10.43,14.273c0.65,0.102,1.299,0.15,1.938,0.15C220.736,205.02,226.057,200.609,227.017,194.44z"/>
        <path d="M194.184,82.63l-2.592,2.593l18.906,18.906c0.496-1.173,1.201-2.226,2.072-3.112L194.184,82.63z"/>
        <rect x="194.195" y="75.509" transform="matrix(0.7072 -0.7071 0.7071 0.7072 0.2859 161.7088)" width="2.334" height="10"/>
        <path d="M231.705,117.206c0.039,0,0.08,0,0.121,0c11.615,0,21.416-3.309,29.076-8.294c11.572-7.526,18.297-18.34,22.271-27.065   c3.967-8.763,5.217-15.64,5.303-16.076c0.785-4.347-2.103-8.507-6.449-9.292c-4.35-0.786-8.51,2.103-9.295,6.45v-0.003   l-0.004,0.018c-0.113,0.727-2.332,11.062-8.623,20.456c-3.131,4.713-7.201,9.162-12.396,12.399   c-5.217,3.228-11.547,5.386-20.004,5.406c-3.188,0-6.68-0.32-10.512-1.047c-4.344-0.823-8.529,2.027-9.352,6.37   c-0.824,4.341,2.027,8.525,6.369,9.35C222.945,116.776,227.443,117.206,231.705,117.206z"/>
        <polygon points="214.592,90.042 211.764,87.214 208.682,92.853 208.953,93.124  "/>
    </g>
</svg>