<svg xmlns="http://www.w3.org/2000/svg" data-name="Layer 1" viewBox="0 0 100 125" x="0px" y="0px" fill="#6c63ff">
    <title>collections_07</title>
    <path d="M72.66,44.44a6.19,6.19,0,0,0-1.94-3.68l-0.11-.09-4.2-3a6.41,6.41,0,0,1-2.65-5.17V27.3h1.83a1,1,0,0,0,1-1V16.4a1,1,0,0,0-1-1H34.41a1,1,0,0,0-1,1V26.3a1,1,0,0,0,1,1h1.83v5.17a6.42,6.42,0,0,1-2.65,5.17l-4.2,3-0.11.09a5.9,5.9,0,0,0-2,4.43V78.32a6.28,6.28,0,0,0,6.28,6.28H66.43a6.28,6.28,0,0,0,6.28-6.28V45.19A6.38,6.38,0,0,0,72.66,44.44Zm-12-27h3.94V25.3H60.65V17.4Zm-6.43,0h4.43V25.3H54.22V17.4Zm-6.43,0h4.43V25.3H47.78V17.4Zm-6.43,0h4.43V25.3H41.35V17.4ZM35.41,25.3V17.4h3.94V25.3H35.41Zm35.29,53a4.28,4.28,0,0,1-4.28,4.28H33.57a4.28,4.28,0,0,1-4.28-4.28V48.42H70.7v29.9Zm0-31.9H29.3V45.19a4.06,4.06,0,0,1,0-.51,4.25,4.25,0,0,1,1.3-2.43l4.14-3a8.42,8.42,0,0,0,3.48-6.79V27.3H61.75v5.18a8.42,8.42,0,0,0,3.48,6.79l4.14,3a3.87,3.87,0,0,1,1.33,2.94v1.22ZM37.31,55.55A1.65,1.65,0,1,1,39,57.2,1.65,1.65,0,0,1,37.31,55.55Zm6.94,8.57a1.57,1.57,0,1,1,1.57,1.57A1.57,1.57,0,0,1,44.25,64.12ZM43,77.83a1,1,0,1,1,1,1A1,1,0,0,1,43,77.83ZM53.22,57.57a1,1,0,1,1,1,1A1,1,0,0,1,53.22,57.57Zm12.37,19a1.29,1.29,0,1,1-1.29,1.29A1.29,1.29,0,0,1,65.59,76.54ZM34.41,69a1.29,1.29,0,1,1,1.29,1.29A1.29,1.29,0,0,1,34.41,69ZM52.58,72.4a1.17,1.17,0,1,1,1.17,1.17A1.17,1.17,0,0,1,52.58,72.4ZM63.95,54.95a1.18,1.18,0,1,1,1.18,1.18A1.18,1.18,0,0,1,63.95,54.95ZM60.8,69a1.29,1.29,0,1,1,1.29,1.29A1.29,1.29,0,0,1,60.8,69Z"/>
</svg>