<svg xmlns:dc="http://purl.org/dc/elements/1.1/" 
    xmlns:cc="http://creativecommons.org/ns#" 
    xmlns:rdf="http://www.w3.org/1999/02/22-rdf-syntax-ns#" 
    xmlns:svg="http://www.w3.org/2000/svg" 
    xmlns="http://www.w3.org/2000/svg" 
    xmlns:sodipodi="http://sodipodi.sourceforge.net/DTD/sodipodi-0.dtd" 
    xmlns:inkscape="http://www.inkscape.org/namespaces/inkscape" version="1.1" preserveAspectRatio="xMidYMid meet" viewBox="0 0 100 125" x="0px" y="0px">
    <g style="" display="inline">
        <g style="" transform="matrix(0.41471771,0,0,0.41471771,41.794201,21.901238)" display="inline">
            <path style="color:#6c63ff;font-style:normal;font-variant:normal;font-weight:normal;font-stretch:normal;font-size:medium;line-height:normal;font-family:sans-serif;font-variant-ligatures:normal;font-variant-position:normal;font-variant-caps:normal;font-variant-numeric:normal;font-variant-alternates:normal;font-feature-settings:normal;text-indent:0;text-align:start;text-decoration:none;text-decoration-line:none;text-decoration-style:solid;text-decoration-color:#6c63ff;letter-spacing:normal;word-spacing:normal;text-transform:none;writing-mode:lr-tb;direction:ltr;text-orientation:mixed;dominant-baseline:auto;baseline-shift:baseline;text-anchor:start;white-space:normal;shape-padding:0;clip-rule:nonzero;display:inline;overflow:visible;visibility:visible;opacity:1;isolation:auto;mix-blend-mode:normal;color-interpolation:sRGB;color-interpolation-filters:linearRGB;solid-color:#6c63ff;solid-opacity:1;vector-effect:none;fill:#6c63ff;fill-opacity:1;fill-rule:nonzero;stroke:none;stroke-width:1.52177024;stroke-linecap:round;stroke-linejoin:round;stroke-miterlimit:4;stroke-dasharray:none;stroke-dashoffset:0;stroke-opacity:1;color-rendering:auto;image-rendering:auto;shape-rendering:auto;text-rendering:auto;enable-background:accumulate" d="M 12.214844 21.605469 C 8.2446528 21.605469 5 24.850123 5 28.820312 L 5 71.179688 C 5 75.149876 8.2446528 78.394531 12.214844 78.394531 L 87.785156 78.394531 C 91.755348 78.394531 95 75.149876 95 71.179688 L 95 28.820312 C 95 24.850124 91.755348 21.605469 87.785156 21.605469 L 12.214844 21.605469 z M 12.214844 24.658203 L 87.785156 24.658203 C 90.117151 24.658203 91.947266 26.488318 91.947266 28.820312 L 91.947266 71.179688 C 91.947266 73.511683 90.117151 75.341797 87.785156 75.341797 L 12.214844 75.341797 C 9.8828479 75.341797 8.0527344 73.511683 8.0527344 71.179688 L 8.0527344 28.820312 C 8.0527344 26.488319 9.8828479 24.658203 12.214844 24.658203 z M 29.294922 29.746094 C 26.019145 29.746674 23.363755 32.564681 23.363281 36.041016 C 23.363737 39.51735 26.019145 42.335369 29.294922 42.335938 C 32.571461 42.336518 35.228042 39.518159 35.228516 36.041016 C 35.228059 32.563872 32.571461 29.745518 29.294922 29.746094 z M 29.294922 42.335938 L 23.166016 42.335938 C 20.751321 42.335938 18.806641 44.282572 18.806641 46.697266 L 18.806641 51.169922 C 18.806641 53.584616 20.751321 55.529297 23.166016 55.529297 L 35.425781 55.529297 C 37.840474 55.529297 39.783203 53.584616 39.783203 51.169922 L 39.783203 46.697266 C 39.783203 44.282572 37.840474 42.335938 35.425781 42.335938 L 29.294922 42.335938 z M 46.767578 36.285156 A 1.366211 1.366211 0 1 0 46.767578 39.017578 L 78.669922 39.017578 A 1.366211 1.366211 0 1 0 78.669922 36.285156 L 46.767578 36.285156 z M 47.027344 40.150391 A 1.50015 1.50015 0 1 0 47.027344 43.150391 L 69.976562 43.150391 A 1.50015 1.50015 0 1 0 69.976562 40.150391 L 47.027344 40.150391 z M 47.027344 44.150391 A 1.50015 1.50015 0 1 0 47.027344 47.150391 L 69.976562 47.150391 A 1.50015 1.50015 0 1 0 69.976562 44.150391 L 47.027344 44.150391 z M 19.546875 61.357422 C 19.137076 61.357422 18.806641 61.687858 18.806641 62.097656 L 18.806641 71.990234 C 18.806641 72.400034 19.137076 72.730469 19.546875 72.730469 L 20.451172 72.730469 C 20.860971 72.730469 21.191406 72.400034 21.191406 71.990234 L 21.191406 62.097656 C 21.191406 61.687858 20.860971 61.357422 20.451172 61.357422 L 19.546875 61.357422 z M 25.546875 61.357422 C 25.137076 61.357422 24.806641 61.687858 24.806641 62.097656 L 24.806641 71.990234 C 24.806641 72.400034 25.137076 72.730469 25.546875 72.730469 L 26.451172 72.730469 C 26.860971 72.730469 27.191406 72.400034 27.191406 71.990234 L 27.191406 62.097656 C 27.191406 61.687858 26.860971 61.357422 26.451172 61.357422 L 25.546875 61.357422 z M 31.546875 61.357422 C 31.137076 61.357422 30.806641 61.687858 30.806641 62.097656 L 30.806641 71.990234 C 30.806641 72.400034 31.137076 72.730469 31.546875 72.730469 L 32.451172 72.730469 C 32.860971 72.730469 33.191406 72.400034 33.191406 71.990234 L 33.191406 62.097656 C 33.191406 61.687858 32.860971 61.357422 32.451172 61.357422 L 31.546875 61.357422 z M 37.546875 61.357422 C 37.137076 61.357422 36.806641 61.687858 36.806641 62.097656 L 36.806641 71.990234 C 36.806641 72.400034 37.137076 72.730469 37.546875 72.730469 L 38.451172 72.730469 C 38.860971 72.730469 39.191406 72.400034 39.191406 71.990234 L 39.191406 62.097656 C 39.191406 61.687858 38.860971 61.357422 38.451172 61.357422 L 37.546875 61.357422 z M 43.546875 61.357422 C 43.137076 61.357422 42.806641 61.687858 42.806641 62.097656 L 42.806641 71.990234 C 42.806641 72.400034 43.137076 72.730469 43.546875 72.730469 L 44.451172 72.730469 C 44.860971 72.730469 45.191406 72.400034 45.191406 71.990234 L 45.191406 62.097656 C 45.191406 61.687858 44.860971 61.357422 44.451172 61.357422 L 43.546875 61.357422 z M 49.546875 61.357422 C 49.137076 61.357422 48.806641 61.687858 48.806641 62.097656 L 48.806641 71.990234 C 48.806641 72.400034 49.137076 72.730469 49.546875 72.730469 L 50.451172 72.730469 C 50.860971 72.730469 51.191406 72.400034 51.191406 71.990234 L 51.191406 62.097656 C 51.191406 61.687858 50.860971 61.357422 50.451172 61.357422 L 49.546875 61.357422 z M 55.546875 61.357422 C 55.137076 61.357422 54.806641 61.687858 54.806641 62.097656 L 54.806641 71.990234 C 54.806641 72.400034 55.137076 72.730469 55.546875 72.730469 L 56.451172 72.730469 C 56.860971 72.730469 57.191406 72.400034 57.191406 71.990234 L 57.191406 62.097656 C 57.191406 61.687858 56.860971 61.357422 56.451172 61.357422 L 55.546875 61.357422 z M 61.546875 61.357422 C 61.137076 61.357422 60.806641 61.687858 60.806641 62.097656 L 60.806641 71.990234 C 60.806641 72.400034 61.137076 72.730469 61.546875 72.730469 L 62.451172 72.730469 C 62.860972 72.730469 63.191406 72.400034 63.191406 71.990234 L 63.191406 62.097656 C 63.191406 61.687858 62.860972 61.357422 62.451172 61.357422 L 61.546875 61.357422 z M 67.548828 61.357422 C 67.139028 61.357422 66.806641 61.687858 66.806641 62.097656 L 66.806641 71.990234 C 66.806641 72.400034 67.139028 72.730469 67.548828 72.730469 L 68.451172 72.730469 C 68.860972 72.730469 69.193359 72.400034 69.193359 71.990234 L 69.193359 62.097656 C 69.193359 61.687858 68.860972 61.357422 68.451172 61.357422 L 67.548828 61.357422 z M 73.548828 61.357422 C 73.139028 61.357422 72.806641 61.687858 72.806641 62.097656 L 72.806641 71.990234 C 72.806641 72.400034 73.139028 72.730469 73.548828 72.730469 L 74.451172 72.730469 C 74.860972 72.730469 75.193359 72.400034 75.193359 71.990234 L 75.193359 62.097656 C 75.193359 61.687858 74.860972 61.357422 74.451172 61.357422 L 73.548828 61.357422 z M 79.548828 61.357422 C 79.139028 61.357422 78.806641 61.687858 78.806641 62.097656 L 78.806641 71.990234 C 78.806641 72.400034 79.139028 72.730469 79.548828 72.730469 L 80.451172 72.730469 C 80.860972 72.730469 81.193359 72.400034 81.193359 71.990234 L 81.193359 62.097656 C 81.193359 61.687858 80.860972 61.357422 80.451172 61.357422 L 79.548828 61.357422 z M 23.144531 61.408203 C 22.818234 61.408203 22.556641 61.669796 22.556641 61.996094 L 22.556641 72.191406 C 22.556641 72.517706 22.818234 72.779297 23.144531 72.779297 L 23.396484 72.779297 C 23.722783 72.779297 23.984375 72.517706 23.984375 72.191406 L 23.984375 61.996094 C 23.984375 61.669796 23.722783 61.408203 23.396484 61.408203 L 23.144531 61.408203 z M 29.144531 61.408203 C 28.818234 61.408203 28.556641 61.669796 28.556641 61.996094 L 28.556641 72.191406 C 28.556641 72.517706 28.818234 72.779297 29.144531 72.779297 L 29.396484 72.779297 C 29.722783 72.779297 29.984375 72.517706 29.984375 72.191406 L 29.984375 61.996094 C 29.984375 61.669796 29.722783 61.408203 29.396484 61.408203 L 29.144531 61.408203 z M 35.144531 61.408203 C 34.818235 61.408203 34.556641 61.669796 34.556641 61.996094 L 34.556641 72.191406 C 34.556641 72.517706 34.818234 72.779297 35.144531 72.779297 L 35.396484 72.779297 C 35.722783 72.779297 35.984375 72.517706 35.984375 72.191406 L 35.984375 61.996094 C 35.984375 61.669796 35.722783 61.408203 35.396484 61.408203 L 35.144531 61.408203 z M 41.144531 61.408203 C 40.818235 61.408203 40.556641 61.669796 40.556641 61.996094 L 40.556641 72.191406 C 40.556641 72.517706 40.818234 72.779297 41.144531 72.779297 L 41.396484 72.779297 C 41.722783 72.779297 41.984375 72.517706 41.984375 72.191406 L 41.984375 61.996094 C 41.984375 61.669796 41.722783 61.408203 41.396484 61.408203 L 41.144531 61.408203 z M 47.144531 61.408203 C 46.818236 61.408203 46.556641 61.669796 46.556641 61.996094 L 46.556641 72.191406 C 46.556641 72.517706 46.818234 72.779297 47.144531 72.779297 L 47.396484 72.779297 C 47.722783 72.779297 47.984375 72.517706 47.984375 72.191406 L 47.984375 61.996094 C 47.984375 61.669796 47.722783 61.408203 47.396484 61.408203 L 47.144531 61.408203 z M 53.144531 61.408203 C 52.818236 61.408203 52.556641 61.669796 52.556641 61.996094 L 52.556641 72.191406 C 52.556641 72.517706 52.818234 72.779297 53.144531 72.779297 L 53.396484 72.779297 C 53.722783 72.779297 53.984375 72.517706 53.984375 72.191406 L 53.984375 61.996094 C 53.984375 61.669796 53.722783 61.408203 53.396484 61.408203 L 53.144531 61.408203 z M 59.144531 61.408203 C 58.818235 61.408203 58.556641 61.669796 58.556641 61.996094 L 58.556641 72.191406 C 58.556641 72.517706 58.818234 72.779297 59.144531 72.779297 L 59.396484 72.779297 C 59.722783 72.779297 59.984375 72.517706 59.984375 72.191406 L 59.984375 61.996094 C 59.984375 61.669796 59.722783 61.408203 59.396484 61.408203 L 59.144531 61.408203 z M 65.146484 61.408203 C 64.820187 61.408203 64.556641 61.669796 64.556641 61.996094 L 64.556641 72.191406 C 64.556641 72.517706 64.820187 72.779297 65.146484 72.779297 L 65.396484 72.779297 C 65.722783 72.779297 65.986328 72.517706 65.986328 72.191406 L 65.986328 61.996094 C 65.986328 61.669796 65.722783 61.408203 65.396484 61.408203 L 65.146484 61.408203 z M 71.146484 61.408203 C 70.820187 61.408203 70.556641 61.669796 70.556641 61.996094 L 70.556641 72.191406 C 70.556641 72.517706 70.820187 72.779297 71.146484 72.779297 L 71.396484 72.779297 C 71.722783 72.779297 71.986328 72.517706 71.986328 72.191406 L 71.986328 61.996094 C 71.986328 61.669796 71.722783 61.408203 71.396484 61.408203 L 71.146484 61.408203 z M 77.146484 61.408203 C 76.820187 61.408203 76.556641 61.669796 76.556641 61.996094 L 76.556641 72.191406 C 76.556641 72.517706 76.820187 72.779297 77.146484 72.779297 L 77.396484 72.779297 C 77.722783 72.779297 77.986328 72.517706 77.986328 72.191406 L 77.986328 61.996094 C 77.986328 61.669796 77.722783 61.408203 77.396484 61.408203 L 77.146484 61.408203 z " transform="matrix(2.4112787,0,0,2.4112787,-100.77747,-52.80999)"/>
        </g>
    </g>
</svg>